<?xml version="1.0" encoding="utf-8"?>
<!-- Generator: Adobe Illustrator 22.1.0, SVG Export Plug-In . SVG Version: 6.00 Build 0)  -->
<svg version="1.1" id="Ebene_1" xmlns="http://www.w3.org/2000/svg" xmlns:xlink="http://www.w3.org/1999/xlink" x="0px" y="0px"
	 viewBox="0 0 66 74" style="enable-background:new 0 0 66 74;" xml:space="preserve">
<style type="text/css">
	.st0{fill:#FFC100;}
	.st1{fill:#F6EB61;}
	.st2{fill:#439879;}
	.st3{fill:#28CDFB;}
	.st4{fill:#FDD757;}
	.st5{fill:#EC8B00;}
</style>
<g>
	<path class="st0" d="M34.5,43.9v20.6c0.9-0.2,1.7-0.4,2.5-0.9l17.1-9.8c2.5-1.4,4-4.1,4-7V27.3c0-0.8-0.1-1.6-0.4-2.3L39.2,35.7
		C35.4,38.4,34.6,40.9,34.5,43.9z"/>
	<path class="st1" d="M64.5,21.1L57.8,25c0.2,0.7,0.4,1.5,0.4,2.3v19.6c0,2.9-1.6,5.6-4,7L37,63.7c-0.8,0.4-1.6,0.7-2.5,0.9v7.8
		c1.2-0.2,2.4-0.6,3.4-1.2l22.2-12.7c3.1-1.8,5-5.1,5-8.7V24.4C65.1,23.2,64.9,22.1,64.5,21.1z"/>
	<path class="st2" d="M32.9,37.5c1-1.6,2.5-3.1,4.7-4.4l18.7-10.8c-0.6-0.8-1.4-1.5-2.2-2L37,10.5c-2.5-1.4-5.6-1.4-8.1,0l-17,9.8
		c-0.9,0.5-1.6,1.2-2.3,2L28.3,33C30.4,34.4,31.9,35.8,32.9,37.5z"/>
	<path class="st3" d="M11.9,20.3l17-9.8c2.5-1.4,5.6-1.4,8.1,0l17.1,9.8c0.9,0.5,1.6,1.2,2.2,2l6.8-3.9c-0.8-1.1-1.8-2-3-2.6L37.9,3
		C34.9,1.2,31,1.2,28,3L5.9,15.7c-1.2,0.7-2.2,1.6-3,2.7l6.8,3.9C10.3,21.5,11,20.8,11.9,20.3z"/>
	<path class="st4" d="M28.9,63.7l-17-9.8c-2.5-1.4-4-4.1-4-7V27.3c0-0.8,0.1-1.5,0.3-2.2l-6.8-3.9c-0.4,1.1-0.6,2.1-0.6,3.2v25.5
		c0,3.6,1.9,6.9,5,8.6L28,71.2c1,0.6,2.2,1,3.4,1.2v-7.8C30.5,64.4,29.7,64.1,28.9,63.7z"/>
	<path class="st5" d="M26.7,35.7L8.2,25c-0.2,0.7-0.3,1.5-0.3,2.2v19.6c0,2.9,1.5,5.6,4,7l17,9.8c0.8,0.4,1.6,0.7,2.5,0.9V43.9
		C31.3,40.9,30.5,38.4,26.7,35.7z"/>
</g>
</svg>
